<svg xmlns="http://www.w3.org/2000/svg" viewBox="0 0 8.4 10.57">
    <title>
        RICHARD
    </title>
    <g id="text" data-name="text">
        <path d="M.84,9a.81.81,0,0,1,.59.23.76.76,0,0,1,.24.56.78.78,0,0,1-.24.58.81.81,0,0,1-.59.23.82.82,0,0,1-.6-.23A.78.78,0,0,1,0,9.76.76.76,0,0,1,.24,9.2.82.82,0,0,1,.84,9Z"/>
        <path d="M4.17,9a.78.78,0,0,1,.58.23A.73.73,0,0,1,5,9.76a.76.76,0,0,1-.25.58.78.78,0,0,1-.58.23.81.81,0,0,1-.6-.23.78.78,0,0,1-.24-.58.76.76,0,0,1,.24-.56A.81.81,0,0,1,4.17,9Z"/>
        <path d="M7.49,9a.8.8,0,0,1,.59.23.76.76,0,0,1,.24.56.78.78,0,0,1-.24.58.84.84,0,0,1-1.43-.58A.77.77,0,0,1,6.9,9.2.8.8,0,0,1,7.49,9Z"/>
    </g>
</svg>
