<svg xmlns="http://www.w3.org/2000/svg" viewBox="13 0 134.59 10.57">
    <title>
        RICHARD
    </title>
    <g id="text" data-name="text">
        <path d="M14.06.23h3.5a5.51,5.51,0,0,1,1.6.2A3.55,3.55,0,0,1,20.3,1,2.38,2.38,0,0,1,21,1.8a2.52,2.52,0,0,1,.23,1.06,2.21,2.21,0,0,1-.18.89,2.25,2.25,0,0,1-.5.74,3.27,3.27,0,0,1-.78.57,4.48,4.48,0,0,1-1,.37l3.68,4.9h-2L17,5.59H15.76v4.74h-1.7Zm1.7,4.85h1a3.62,3.62,0,0,0,1.06-.15,2.57,2.57,0,0,0,.84-.43,2,2,0,0,0,.55-.68,2,2,0,0,0,.19-.9,2.23,2.23,0,0,0-.15-.83,2,2,0,0,0-.44-.65A1.92,1.92,0,0,0,18.11,1a2.39,2.39,0,0,0-.86-.15H15.76Z"/>
        <path d="M23.7.23h1.7v10.1H23.7Z"/>
        <path d="M29.49,5.32a5.41,5.41,0,0,0,.32,1.9,4.37,4.37,0,0,0,.88,1.43A4,4,0,0,0,32,9.54a4.41,4.41,0,0,0,1.65.31,2.59,2.59,0,0,0,1-.21,4.11,4.11,0,0,0,.93-.54,4.77,4.77,0,0,0,.75-.74,5,5,0,0,0,.55-.84l.72.45a6.15,6.15,0,0,1-.74,1,4.63,4.63,0,0,1-1,.83,5.06,5.06,0,0,1-2.84.79,6,6,0,0,1-2.29-.42A5.35,5.35,0,0,1,29,9,5,5,0,0,1,27.9,7.34a5.13,5.13,0,0,1-.4-2,5.19,5.19,0,0,1,.41-2,5.09,5.09,0,0,1,1.16-1.7A5.49,5.49,0,0,1,30.85.43,6,6,0,0,1,33.16,0a4.71,4.71,0,0,1,1.49.22,5.19,5.19,0,0,1,1.24.57,5.73,5.73,0,0,1,1,.83,6.72,6.72,0,0,1,.75,1l-.74.49a5.13,5.13,0,0,0-1.42-1.8,3,3,0,0,0-1.8-.56A4.27,4.27,0,0,0,32,1,3.94,3.94,0,0,0,30.71,2a4.32,4.32,0,0,0-.89,1.45A5.3,5.3,0,0,0,29.49,5.32Z"/>
        <path d="M41.43,5.48v4.85h-1.7V.23h1.7v4.6h5.08V.23h1.7v10.1h-1.7V5.48Z"/>
        <path d="M54.81,0l4.76,10.33H57.84L56.3,7H52l-1.59,3.36h-.85L54.39,0ZM52.26,6.31H56l-1.84-4Z"/>
        <path d="M60.87.23h3.5a5.51,5.51,0,0,1,1.6.2A3.55,3.55,0,0,1,67.11,1a2.38,2.38,0,0,1,.69.83A2.52,2.52,0,0,1,68,2.86a2.39,2.39,0,0,1-.17.89,2.45,2.45,0,0,1-.51.74,3.27,3.27,0,0,1-.78.57,4.31,4.31,0,0,1-1,.37l3.68,4.9h-2L63.76,5.59H62.57v4.74h-1.7Zm1.7,4.85h1a3.57,3.57,0,0,0,1.06-.15,2.38,2.38,0,0,0,.84-.43A1.9,1.9,0,0,0,66,3.82a2,2,0,0,0,.2-.9A2,2,0,0,0,66,2.09a1.83,1.83,0,0,0-.44-.65A1.92,1.92,0,0,0,64.92,1a2.39,2.39,0,0,0-.86-.15H62.57Z"/>
        <path d="M70.51.23h3.37a10.9,10.9,0,0,1,2.67.29,4.51,4.51,0,0,1,1.87.93,4.89,4.89,0,0,1,1.29,1.67,5,5,0,0,1,.43,2.07,5.09,5.09,0,0,1-.39,2,4.61,4.61,0,0,1-1.12,1.64,5.6,5.6,0,0,1-1.84,1.1,7.22,7.22,0,0,1-2.51.4H70.51Zm1.7,9.37H74a4.47,4.47,0,0,0,1.61-.29,3.72,3.72,0,0,0,1.32-.84,4,4,0,0,0,.88-1.36,5,5,0,0,0,.33-1.89,4.52,4.52,0,0,0-.31-1.71A3.93,3.93,0,0,0,77,2.17a3.83,3.83,0,0,0-1.31-.88A4.27,4.27,0,0,0,74,1H72.21Z"/>
        <path d="M95.07.23,87.76,9.68h7.31v.65h-9.6v-.24L92.57.88h-7.1V.23Z"/>
        <path d="M103.07.23V.88H98.13V4.5h3.57v.65H98.13v5.18h-1.7V.23Z"/>
        <path d="M107.71,0l4.76,10.33h-1.73L109.19,7h-4.33l-1.59,3.36h-.85L107.29,0Zm-2.55,6.31h3.72l-1.83-4Z"/>
        <path d="M113.77.23h1l6.62,7.39h.08V.23h.74V10.57h-.39L114.6,2.35h-.07v8h-.76Z"/>
        <path d="M124.69.23h1.7V9.68h5.09v.65h-6.79Z"/>
        <path d="M132.89.23h1.7v10.1h-1.7Z"/>
    </g>
</svg>
